<?xml version="1.0" encoding="UTF-8"?>
<svg id="Layer_1" data-name="Layer 1" xmlns="http://www.w3.org/2000/svg" viewBox="0 0 509.76 620.98">
  <defs>
    <style>
      .cls-1 {
        stroke-width: 20px;
      }

      .cls-1, .cls-2, .cls-3, .cls-4 {
        fill: none;
        stroke-miterlimit: 10;
      }

      .cls-1, .cls-4 {
        stroke: #935da6;
      }

      .cls-2, .cls-3 {
        stroke: #3d6731;
      }

      .cls-2, .cls-4 {
        stroke-width: 4px;
      }

      .cls-5 {
        fill: #935da6;
      }

      .cls-3 {
        stroke-width: 11px;
      }

      .cls-6 {
        fill: #3d6731;
      }
    </style>
  </defs>
  <g>
    <circle class="cls-1" cx="31.81" cy="115.71" r="21.81"/>
    <circle class="cls-1" cx="464.32" cy="407.89" r="21.81"/>
    <g>
      <path class="cls-5" d="M166.08,14.42c-5.35-2.48-10.81-4.92-16.5-6.5-6.36-1.77-12.83-2.3-19.34-1.19-5.77.98-11.14,3.92-15.4,7.88s-6.7,8.58-8.76,13.67c-1.83,4.53-2.64,9.41-3.02,14.26-.52,6.56.44,13.09,3.46,18.98,2.47,4.8,6.42,8.86,10.43,12.41s8.35,7.16,12.58,10.67,8.72,7.15,13.15,10.65c2.15,1.7,4.31,3.39,6.47,5.07,2.92,2.26,5.81,4.98,9.24,6.42s7.38,1.37,10.87-.42c1.75-.9,3.21-2.31,4.68-3.61,2.09-1.85,4.18-3.7,6.26-5.55,4.3-3.81,8.6-7.62,12.9-11.44,8.09-7.18,16.4-14.54,21.87-24.03,3.21-5.57,5.08-11.47,5.88-17.81s-.45-12.36-2.98-18.05c-1.13-2.54-2.72-4.69-4.44-6.87-1.29-1.65-2.74-3.15-4.38-4.47-4.52-3.66-9.44-6.48-15.09-8.06-11.23-3.13-23.48-.99-33.58,4.57-2.65,1.46-5.03,3.28-7.4,5.15-1.87,1.48-2.93,4.8-2.93,7.07,0,2.45,1.09,5.38,2.93,7.07s4.41,3.05,7.07,2.93l2.66-.36c1.69-.48,3.16-1.33,4.41-2.57.21-.17.42-.33.63-.5l-2.02,1.56c2.6-1.97,5.41-3.59,8.41-4.87l-2.39,1.01c3.03-1.26,6.18-2.13,9.42-2.59l-2.66.36c2.98-.38,5.97-.4,8.95,0l-2.66-.36c2.58.38,5.08,1.07,7.48,2.08l-2.39-1.01c2.36,1.02,4.57,2.3,6.6,3.87l-2.02-1.56c1.79,1.41,3.4,3.01,4.8,4.81l-1.56-2.02c1.21,1.6,2.22,3.32,3.01,5.17l-1.01-2.39c.75,1.85,1.25,3.75,1.52,5.73l-.36-2.66c.29,2.32.25,4.64-.05,6.96l.36-2.66c-.42,2.91-1.23,5.71-2.36,8.42l1.01-2.39c-1.52,3.55-3.55,6.8-5.9,9.85l1.56-2.02c-5.02,6.42-11.23,11.75-17.3,17.14-3.32,2.94-6.63,5.88-9.95,8.82s-6.67,6.12-10.16,8.99l2.02-1.56c-.32.23-.61.41-.97.58l2.39-1.01-.36.11,2.66-.36c-.27.05-.54.06-.82.03l2.66.36c-.27-.04-.54-.11-.79-.21l2.39,1.01c-1.92-.88-3.6-2.48-5.26-3.76l2.02,1.56c-7.08-5.47-14.06-11.06-20.94-16.78-3.41-2.83-6.79-5.68-10.14-8.57-2.93-2.52-5.82-5.1-8.23-8.14l1.56,2.02c-1.24-1.6-2.3-3.3-3.11-5.15l1.01,2.39c-.69-1.67-1.13-3.38-1.39-5.16l.36,2.66c-.42-3.29-.28-6.64.15-9.93l-.36,2.66c.46-3.26,1.27-6.45,2.54-9.5l-1.01,2.39c.96-2.24,2.15-4.35,3.63-6.28l-1.56,2.02c1.14-1.44,2.42-2.74,3.86-3.88l-2.02,1.56c1.45-1.1,3-2,4.67-2.71l-2.39,1.01c1.71-.69,3.47-1.16,5.29-1.44l-2.66.36c2.54-.34,5.07-.3,7.61.01l-2.66-.36c5.15.69,10.08,2.4,14.87,4.4l-2.39-1.01c1.76.75,3.51,1.53,5.25,2.33,2.5,1.16,4.96,1.77,7.71,1.01,2.32-.64,4.83-2.43,5.98-4.6,1.23-2.32,1.84-5.13,1.01-7.71-.76-2.34-2.27-4.9-4.6-5.98h0Z"/>
      <path class="cls-5" d="M162.47,36.67c5.23,0,10.24-4.6,10-10s-4.39-10-10-10c-5.23,0-10.24,4.6-10,10s4.39,10,10,10h0Z"/>
      <path class="cls-5" d="M166.07,33.07c5.23,0,10.24-4.6,10-10s-4.39-10-10-10c-5.23,0-10.24,4.6-10,10s4.39,10,10,10h0Z"/>
      <path class="cls-5" d="M172.38,28.56c5.23,0,10.24-4.6,10-10s-4.39-10-10-10c-5.23,0-10.24,4.6-10,10s4.39,10,10,10h0Z"/>
      <path class="cls-5" d="M157.06,33.07c5.23,0,10.24-4.6,10-10s-4.39-10-10-10c-5.23,0-10.24,4.6-10,10s4.39,10,10,10h0Z"/>
    </g>
    <g>
      <path class="cls-5" d="M353.51,385.52c-5.35-2.48-10.81-4.92-16.5-6.5-6.36-1.77-12.83-2.3-19.34-1.19-5.77.98-11.14,3.92-15.4,7.88s-6.7,8.58-8.76,13.67c-1.83,4.53-2.64,9.41-3.02,14.26-.52,6.56.44,13.09,3.46,18.98,2.47,4.8,6.42,8.86,10.43,12.41s8.35,7.16,12.58,10.67,8.72,7.15,13.15,10.65c2.15,1.7,4.31,3.39,6.47,5.07,2.92,2.26,5.81,4.98,9.24,6.42s7.38,1.37,10.87-.42c1.75-.9,3.21-2.31,4.68-3.61,2.09-1.85,4.18-3.7,6.26-5.55,4.3-3.81,8.6-7.62,12.9-11.44,8.09-7.18,16.4-14.54,21.87-24.03,3.21-5.57,5.08-11.47,5.88-17.81s-.45-12.36-2.98-18.05c-1.13-2.54-2.72-4.69-4.44-6.87-1.29-1.65-2.74-3.15-4.38-4.47-4.52-3.66-9.44-6.48-15.09-8.06-11.23-3.13-23.48-.99-33.58,4.57-2.65,1.46-5.03,3.28-7.4,5.15-1.87,1.48-2.93,4.8-2.93,7.07,0,2.45,1.09,5.38,2.93,7.07s4.41,3.05,7.07,2.93l2.66-.36c1.69-.48,3.16-1.33,4.41-2.57.21-.17.42-.33.63-.5l-2.02,1.56c2.6-1.97,5.41-3.59,8.41-4.87l-2.39,1.01c3.03-1.26,6.18-2.13,9.42-2.59l-2.66.36c2.98-.38,5.97-.4,8.95,0l-2.66-.36c2.58.38,5.08,1.07,7.48,2.08l-2.39-1.01c2.36,1.02,4.57,2.3,6.6,3.87l-2.02-1.56c1.79,1.41,3.4,3.01,4.8,4.81l-1.56-2.02c1.21,1.6,2.22,3.32,3.01,5.17l-1.01-2.39c.75,1.85,1.25,3.75,1.52,5.73l-.36-2.66c.29,2.32.25,4.64-.05,6.96l.36-2.66c-.42,2.91-1.23,5.71-2.36,8.42l1.01-2.39c-1.52,3.55-3.55,6.8-5.9,9.85l1.56-2.02c-5.02,6.42-11.23,11.75-17.3,17.14-3.32,2.94-6.63,5.88-9.95,8.82s-6.67,6.12-10.16,8.99l2.02-1.56c-.32.23-.61.41-.97.58l2.39-1.01-.36.11,2.66-.36c-.27.05-.54.06-.82.03l2.66.36c-.27-.04-.54-.11-.79-.21l2.39,1.01c-1.92-.88-3.6-2.48-5.26-3.76l2.02,1.56c-7.08-5.47-14.06-11.06-20.94-16.78-3.41-2.83-6.79-5.68-10.14-8.57-2.93-2.52-5.82-5.1-8.23-8.14l1.56,2.02c-1.24-1.6-2.3-3.3-3.11-5.15l1.01,2.39c-.69-1.67-1.13-3.38-1.39-5.16l.36,2.66c-.42-3.29-.28-6.64.15-9.93l-.36,2.66c.46-3.26,1.27-6.45,2.54-9.5l-1.01,2.39c.96-2.24,2.15-4.35,3.63-6.28l-1.56,2.02c1.14-1.44,2.42-2.74,3.86-3.88l-2.02,1.56c1.45-1.1,3-2,4.67-2.71l-2.39,1.01c1.71-.69,3.47-1.16,5.29-1.44l-2.66.36c2.54-.34,5.07-.3,7.61.01l-2.66-.36c5.15.69,10.08,2.4,14.87,4.4l-2.39-1.01c1.76.75,3.51,1.53,5.25,2.33,2.5,1.16,4.96,1.77,7.71,1.01,2.32-.64,4.83-2.43,5.98-4.6,1.23-2.32,1.84-5.13,1.01-7.71-.76-2.34-2.27-4.9-4.6-5.98h0Z"/>
      <path class="cls-5" d="M349.9,407.77c5.23,0,10.24-4.6,10-10s-4.39-10-10-10c-5.23,0-10.24,4.6-10,10s4.39,10,10,10h0Z"/>
      <path class="cls-5" d="M353.51,404.17c5.23,0,10.24-4.6,10-10s-4.39-10-10-10c-5.23,0-10.24,4.6-10,10s4.39,10,10,10h0Z"/>
      <path class="cls-5" d="M359.81,399.66c5.23,0,10.24-4.6,10-10s-4.39-10-10-10c-5.23,0-10.24,4.6-10,10s4.39,10,10,10h0Z"/>
      <path class="cls-5" d="M344.5,404.17c5.23,0,10.24-4.6,10-10s-4.39-10-10-10c-5.23,0-10.24,4.6-10,10s4.39,10,10,10h0Z"/>
    </g>
    <path class="cls-5" d="M322.95,7.31c-.26.64-.53,1.29-.8,1.93l1.01-2.39c-5.78,13.63-13.65,26.24-22.68,37.95l1.56-2.02c-11.39,14.72-24.49,27.99-37.96,40.79-15.15,14.4-30.61,28.48-45.94,42.69-9.15,8.48-18.31,16.96-27.46,25.44-3.85,3.56-3.88,10.58,0,14.14,4.12,3.78,10.04,3.8,14.14,0,21.41-19.83,42.85-39.63,64.22-59.51,18.64-17.34,36.85-35.17,51.95-55.76,8.64-11.79,15.73-24.42,21.24-37.96.91-2.24.16-5.72-1.01-7.71s-3.59-4.05-5.98-4.6c-2.56-.58-5.43-.46-7.71,1.01l-2.02,1.56c-1.24,1.25-2.1,2.72-2.57,4.41h0Z"/>
    <path class="cls-5" d="M102.2,265.19c-.56,1.79-1.2,3.54-1.92,5.27l1.01-2.39c-3.24,7.6-7.88,14.44-12.47,21.27-4.33,6.44-8.44,13-12.05,19.87-7.37,14.05-13.13,29.03-17.02,44.41-3.88,15.35-6.03,31.26-6.41,47.09s1.13,31.78,4.29,47.31,8.35,30.7,15.14,45.08c.79,1.68,1.61,3.34,2.46,5,1.1,2.16,3.69,3.97,5.98,4.6s5.58.36,7.71-1.01c4.77-3.07,6.13-8.69,3.59-13.68-1.98-3.9-3.83-7.87-5.54-11.89l1.01,2.39c-6.58-15.63-10.99-32.12-13.26-48.92l.36,2.66c-1.84-13.8-2.25-27.78-1.22-41.66.29-3.97.71-7.92,1.23-11.87l-.36,2.66c1.81-13.39,4.94-26.6,9.42-39.35,1.27-3.62,2.66-7.2,4.14-10.74l-1.01,2.39c3.37-7.99,7.28-15.76,11.73-23.2,4.77-7.99,10.41-15.42,15.09-23.47,3.03-5.2,5.62-10.74,7.41-16.49,1.56-4.99-1.84-11.13-6.98-12.3-5.43-1.24-10.63,1.64-12.3,6.98h0Z"/>
    <path class="cls-5" d="M148.34,150.02c-21.11,13.94-39.35,31.6-55.71,50.78-8.46,9.92-16.46,20.21-24.33,30.61-7.64,10.1-15.34,20.2-22.55,30.61-3.72,5.38-7.26,10.89-10.32,16.67-3.41,6.42-6.14,13.18-8.54,20.04-1.14,3.25-2.21,6.52-3.35,9.77-.53,1.52-1.07,3.04-1.64,4.55-.3.81-.61,1.61-.93,2.41-.15.39-.31.78-.47,1.17-.07.18-.89,2.13-.22.55.6-1.41.04-.1-.11.25-.17.39-.33.77-.5,1.16-.3.67-.59,1.35-.9,2.02-.73,1.63-1.47,3.25-2.22,4.88-1.66,3.65-3.28,7.32-4.82,11.03-10.62,25.62-8.33,53.88-6.74,80.92,1.54,26.16,4.67,52.49,15.7,76.54,1.29,2.82,2.71,5.58,4.23,8.29,2.57,4.56,9.19,6.48,13.68,3.59s6.34-8.8,3.59-13.68c-1.14-2.03-2.23-4.09-3.24-6.19-.51-1.04-.99-2.1-1.47-3.15-.2-.44-.39-.88-.58-1.33-.41-.93.96,2.34.11.25-1.71-4.2-3.18-8.49-4.45-12.84-2.55-8.78-4.25-17.78-5.47-26.84l.36,2.66c-1.34-10.13-2.09-20.33-2.65-30.54-.59-10.81-1.23-21.66-1.16-32.49.04-6.22.37-12.44,1.19-18.62l-.36,2.66c.61-4.37,1.45-8.7,2.65-12.95.51-1.82,1.09-3.62,1.73-5.41.35-.99.72-1.97,1.1-2.95.23-.59.46-1.17.7-1.75.25-.62,1.13-2.52-.04.07,3.82-8.46,7.82-16.9,11.01-25.61,1.48-4.04,2.81-8.13,4.22-12.2.7-2.03,1.42-4.06,2.19-6.07.34-.9.7-1.8,1.06-2.7l.12-.3c.41-1,.33-.79-.26.61.35-.36.53-1.2.75-1.68,3.47-7.63,7.87-14.8,12.6-21.7,9.03-13.17,18.83-25.87,28.53-38.55-1.95,2.55.11-.13.57-.73.59-.76,1.19-1.53,1.79-2.29,1.25-1.6,2.52-3.19,3.79-4.78,2.48-3.09,4.98-6.16,7.53-9.19,5.01-5.97,10.18-11.82,15.56-17.47,6.01-6.31,12.28-12.38,18.88-18.08,1.59-1.38,3.2-2.73,4.83-4.06.89-.73,1.78-1.44,2.68-2.16.38-.3.75-.59,1.13-.89.6-.46.3-.24-.89.69.3-.23.61-.47.91-.7,3.52-2.67,7.12-5.22,10.8-7.65,4.36-2.88,6.62-8.97,3.59-13.68-2.8-4.35-9.01-6.67-13.68-3.59h0Z"/>
    <path class="cls-5" d="M383.89,17.2c-2.82,3.87-5.68,7.72-8.56,11.54-1.36,1.8-2.73,3.59-4.1,5.38-.24.31-1.16,1.5.01-.02-.35.45-.69.89-1.04,1.34-.78,1-1.56,2-2.34,3-5.83,7.42-11.79,14.75-17.88,21.96-12.08,14.33-24.66,28.23-37.7,41.69s-26.76,26.65-40.82,39.25c-14.27,12.79-29.31,24.72-43.19,37.94-27.81,26.49-47.93,59.5-66.92,92.56s-36.8,67.88-44.55,105.49c-7.36,35.72-5.65,73.86,10.46,107.03,1.86,3.84,3.94,7.56,6.2,11.17,2.77,4.43,9.05,6.57,13.68,3.59s6.55-8.94,3.59-13.68c-2.26-3.62-4.34-7.34-6.2-11.17-.45-.93-.89-1.86-1.31-2.79-.21-.47-.42-.94-.63-1.41-.13-.3-.77-1.84-.26-.58s-.11-.28-.23-.59c-.19-.48-.38-.95-.57-1.43-.42-1.08-.82-2.16-1.21-3.25-2.85-8.01-4.91-16.3-6.23-24.7-.08-.51-.15-1.02-.23-1.54-.3-1.9-.05.08.04.35-.3-.93-.27-2.12-.37-3.09-.24-2.19-.44-4.39-.59-6.6-.29-4.29-.42-8.59-.38-12.89s.24-8.62.59-12.92c.17-2.08.38-4.17.62-6.24.06-.52.12-1.04.19-1.56.04-.35.27-2.03.07-.61s.04-.27.09-.61c.09-.65.19-1.29.29-1.94,2.83-18.07,8.27-35.68,15.15-52.6.43-1.05.86-2.1,1.3-3.14-.82,1.98.45-1.03.66-1.52.96-2.21,1.94-4.41,2.94-6.6,1.95-4.26,3.98-8.48,6.07-12.68,4.19-8.4,8.65-16.67,13.24-24.86,9.1-16.24,18.51-32.36,28.69-47.95,5.06-7.75,10.36-15.36,16.01-22.7-1.29,1.67.7-.88,1.02-1.29.7-.88,1.4-1.75,2.11-2.62,1.5-1.85,3.03-3.67,4.59-5.48,3.03-3.52,6.17-6.95,9.41-10.28,13.35-13.71,28.35-25.64,42.72-38.22,14-12.25,27.57-24.98,40.69-38.16,26.65-26.78,51.34-55.45,74.09-85.61,2.72-3.6,5.4-7.22,8.06-10.87,3.09-4.24.86-11.33-3.59-13.68-5.2-2.75-10.38-.94-13.68,3.59h0Z"/>
    <path class="cls-5" d="M216.54,477.09c1.45,1.87-.36-.54-.73-1.06-.66-.94-1.31-1.89-1.93-2.86-1.17-1.82-2.28-3.69-3.31-5.61s-1.99-3.86-2.87-5.84c-.14-.3-.8-1.82-.26-.56s-.1-.27-.23-.58c-.43-1.07-.83-2.15-1.22-3.23-1.47-4.11-2.67-8.32-3.61-12.59-.47-2.14-.88-4.3-1.24-6.46-.08-.51-.16-1.02-.24-1.53-.05-.35-.26-2.02-.09-.59s-.02-.24-.06-.59c-.07-.64-.14-1.28-.21-1.93-.94-9.39-.79-18.86.1-28.24.11-1.18.24-2.36.37-3.54.07-.59.14-1.18.21-1.77.33-2.85-.21,1.3.05-.43.37-2.5.75-5,1.18-7.48.87-4.99,1.9-9.94,3.04-14.88,4.26-18.47,9.42-36.91,15.89-54.73.78-2.15,1.59-4.29,2.42-6.42.39-1,.79-2,1.19-3,.2-.5.41-.99.61-1.49.4-.96.53-1.49.08-.21,1.47-4.24,3.73-8.38,5.76-12.37,4.12-8.1,8.82-15.9,14.26-23.19.32-.43.63-.87.97-1.28-1.31,1.59-.37.48-.1.14.75-.93,1.49-1.86,2.25-2.78,1.44-1.73,2.91-3.43,4.41-5.1,3.01-3.34,6.14-6.58,9.34-9.74,6.43-6.34,13.14-12.39,19.8-18.49s13.27-12.26,19.48-18.81c7.04-7.44,13.27-15.52,19.49-23.65.72-.94,1.43-1.87,2.15-2.81,1.17-1.52.3-.39.06-.08.45-.58.9-1.16,1.36-1.74,1.51-1.92,3.04-3.83,4.6-5.7,2.98-3.58,6.06-7.06,9.23-10.47,6.34-6.81,13.01-13.31,19.86-19.6,13.75-12.64,28.2-24.5,42.26-36.78,26.63-23.26,52.89-49.25,67.95-81.77,2.08-4.49,3.98-9.08,5.67-13.74,1.78-4.93-2-11.17-6.98-12.3-5.63-1.28-10.39,1.71-12.3,6.98-.74,2.05-1.54,4.07-2.36,6.09-.54,1.34.71-1.58.11-.27-.21.46-.41.94-.62,1.4-.52,1.16-1.06,2.32-1.61,3.47-1.87,3.9-3.92,7.72-6.12,11.45s-4.69,7.6-7.24,11.26c-1.17,1.68-2.37,3.34-3.59,4.98-.61.82-1.22,1.65-1.86,2.45,1.33-1.67.43-.56.15-.2-.48.6-.96,1.21-1.44,1.81-11.15,13.89-23.91,26.41-37.17,38.27-27.99,25.06-58.41,47.82-81.88,77.48-3.54,4.48-6.99,9.04-10.47,13.57-.94,1.23.9-1.14-.06.07-.36.46-.72.93-1.09,1.39-.82,1.04-1.64,2.08-2.48,3.11-1.61,1.99-3.26,3.96-4.95,5.88-5.96,6.78-12.43,13.08-19.04,19.23-13.38,12.46-27.41,24.36-39.09,38.5-24.74,29.93-36.56,67.66-46.01,104.73-9.7,38.04-14.48,80.43,5.59,116.13,2.44,4.33,5.32,8.31,8.36,12.24,1.45,1.88,4.83,2.93,7.07,2.93,2.45,0,5.38-1.09,7.07-2.93,4.05-4.41,3.43-9.71,0-14.14h0Z"/>
    <path class="cls-5" d="M455.32,21.84c-.04,1.62-.18,3.22-.3,4.83-.2,2.69.4-2.13-.06.53-.14.79-.26,1.58-.41,2.37-.6,3.17-1.4,6.3-2.3,9.39-1.82,6.26-4.06,12.38-6.03,18.59-3.63,11.42-5.8,23.29-5.22,35.31,1.12,23.08,10.36,45.35,25.86,62.48,3.97,4.38,8.4,8.21,13.1,11.78,1.92,1.46,3.9,2.83,5.94,4.13.61.39,1.21.79,1.83,1.16,2.06,1.23-1.48-1.42.23.21s-.95-1.64.06.17c-.58-1.5-.72-1.75-.43-.76-.17-1.75-.24-2.1-.21-1.03l.23-1.58c-.07.36-.16.72-.28,1.06-.28-1.11,1.01-1.86.31-.83l-.3.51c-.59.86-.42.68.49-.55-.08-.02-1.19,1.28-1.31,1.39l-.48.44c-.82.69-.66.58.47-.31-.13.35-1.36.93-1.68,1.13-.58.35-1.19.64-1.77.98-.99.46-.8.4.57-.19-.4.16-.81.31-1.21.45-5.1,1.72-10.43,3.04-15.05,5.93-6.09,3.82-10.24,9.62-10.61,16.94s3.64,12.6,7.45,18.04c.59.84,1.15,2.42,1.87,3.1l-.56-1.33c.14.36.26.73.38,1.1.14.45.17,1.29.41,1.68l-.2-1.54c.04.37.06.74.06,1.11.01,1.71-.68.75.16-.55l-.12.5c-.33.98-.18.65.45-1.01-.77,1.49,1.65-1.73.35-.49l1.2-.96c1.54-.56,1.79-.66.74-.33-2.1.55,2.34.06.12-.04-1.28-.06-2.62-.04-3.9.04-4.42.26-8.51,1.64-11.61,4.9-5.14,5.4-4.52,12.68-1.24,18.78.91,1.7,2.05,3.27,3.09,4.89.45.7.89,1.4,1.3,2.12.24.42.45.86.68,1.29.82,1.51-.94-2.6-.15-.24.53,1.57-.56.53,0-.94-.04.11-.03,1.18.01,1.28l.23-1.81c-.27.94-.08.58.55-1.06-.53.64-1.51,1.69.55-.53-1.14,1.23,1.89-1.03.83-.56-.33.15-.68.4-1,.58-1.59.93,2.41-.79.59-.27-.66.19-1.31.41-1.98.58-5.54,1.46-10.93,2.71-15.24,6.81-4.81,4.57-6.45,11.45-5.86,17.88.28,3,.78,5.97,1.31,8.93.23,1.28.44,2.57.68,3.86.41,2.28-.21-2.39,0-.11.07.83.17,1.66.2,2.5.02.61.03,1.22,0,1.83l-.04.64c-.11,1.1-.07.84.12-.78-.37.91-.52,2.06-.8,3-.62,2.07,1.12-1.97.03-.11-.32.54-.59,1.1-.92,1.63-.09.15-1.1,1.46-1.06,1.56.93-1.18,1.06-1.37.38-.55-.28.32-.56.63-.86.94-.44.46-.9.91-1.38,1.34l-.48.42c-.66.54-.66.55,0,.03l.5-.38c-.35.26-.7.51-1.06.75-.54.37-1.09.72-1.65,1.05s-1.13.64-1.71.94l-.58.29c-.98.45-.78.38.61-.22.05.19-3.92,1.29-4.3,1.38-.84.2-1.68.36-2.53.52-1.98.37-.21.09.11,0-1.5.47-3.57.26-5.13.26-1.72,0-3.45-.09-5.16-.23-.86-.07-1.72-.17-2.59-.26-1.17-.15-1.15-.14.07.01-.57-.08-1.15-.17-1.72-.27-6.67-1.08-13.27-2.6-19.9-3.89-13.28-2.59-26.76-4.83-40.31-5.29s-27.37.99-40.04,5.7c-12.72,4.72-23.72,12.07-34.36,20.36-9.64,7.52-19.12,15.35-28.56,23.13-5.17,4.26-9.87,9.18-13.12,15.09s-5.48,12.98-7.69,19.62c-4.59,13.81-9.18,27.61-13.77,41.42s-9.55,27.14-13.4,40.95c-1.94,6.94-3.25,14.16-3.34,21.38-.06,5.23,4.64,10.24,10,10s9.94-4.39,10-10c.02-1.73.16-3.44.27-5.17.19-2.84-.4,2.04.08-.76.15-.85.28-1.7.45-2.55.66-3.41,1.55-6.76,2.54-10.09,2.04-6.83,4.4-13.56,6.65-20.32,4.59-13.81,9.18-27.61,13.77-41.42,2.3-6.9,4.59-13.81,6.89-20.71.96-2.88,1.66-6.35,3.18-8.99-1.02,1.78-.32.7-.09.23.33-.71.65-1.42,1-2.12.83-1.64,1.8-3.15,2.78-4.69,1.34-2.12-1.39,1.48.28-.38.51-.56.99-1.14,1.51-1.7.95-1.01,1.95-1.98,2.98-2.92,2.35-2.14,4.85-4.11,7.35-6.07,4.82-3.78,9.53-7.69,14.24-11.6,2.17-1.79,4.34-3.58,6.53-5.35,1.19-.96,2.37-1.95,3.6-2.85-2.03,1.48.06-.04.4-.3.81-.61,1.63-1.22,2.45-1.82,4.89-3.58,9.97-6.92,15.34-9.74,1.12-.59,2.24-1.15,3.38-1.69.69-.32,1.38-.63,2.07-.94,2.34-1.07-2.01.72.42-.16,3.3-1.21,6.58-2.34,9.99-3.19,2.78-.69,5.82-1.56,8.68-1.7-2.59.13.07,0,.53-.05.8-.09,1.6-.17,2.41-.24,1.88-.17,3.76-.28,5.64-.35,6.4-.23,12.8.06,19.17.68,1.51.15,3.01.31,4.51.49.82.1,1.64.2,2.46.31-2.54-.36.23.04.62.1,3.29.48,6.56,1.02,9.83,1.61,13.81,2.47,27.84,6.72,41.95,6.73s27.49-5.43,35.71-17.18c3.59-5.13,5.36-11.73,4.99-17.97-.19-3.24-.75-6.47-1.32-9.66-.19-1.07-.39-2.13-.58-3.2-.09-.54-.08-1.4-.31-1.89.21,1.62.24,1.89.11.8-.04-.4-.08-.81-.11-1.21-.08-1.07.21-2.45,0-3.47.39,1.79-.37,1.96,0,.51.09-.33.7-1.99.01-.3-.78,1.91.21-.11.22-.21l-.93,1.16c.24-.29.49-.56.76-.81,1.3-1.48-1.91,1.03-.29.25.29-.18.59-.34.9-.49.94-.43.62-.3-.95.39,1.85-.22,3.88-1.11,5.72-1.56,2.75-.67,5.59-1.55,8.01-3.04,6.36-3.93,9.28-11.44,7.34-18.66-1.22-4.53-3.98-8.15-6.37-12.08-.39-.64-.71-1.32-1.09-1.96-.88-1.49.9,2.47.4.88-.3-.96-.11-2,.07,1.22-.06-1.03.47-1.74-.24,1.3l.1-.33c-.3,1.23-.91,2.28-1.83,3.16,1.18-1.16-2.3,1.28-.43.29-1.49.58-1.71.73-.68.46-1.64.19-1.9.26-.79.18,2.98.15,6.23.03,9.06-.86,4.99-1.58,8.5-5.23,10.3-10.06,2.22-5.98.64-13.19-2.47-18.56-1.31-2.26-3.04-4.25-4.47-6.43-.38-.58-.74-1.16-1.08-1.77l-.32-.6c-.47-.99-.4-.8.2.56-.23.02-.37-1.86-.51-1.89.16,1.47.23,1.81.21,1.02,0-.34,0-.67.04-1.01l-.18,1.57c.08-.35.18-.69.29-1.03.05,1.24-.89,2.04-.1.53.86-1.65-1.69,1.64-.28.39.34-.3.91-.72,1.17-1.08-1.18,1.63-1.32.97-.23.28.48-.3.98-.58,1.49-.85.43-.22.91-.39,1.31-.64.69-.32.35-.18-1.03.41.37-.15.74-.3,1.12-.44,5.3-2.02,10.95-3.1,15.7-6.38,6.15-4.25,11.42-10.46,11.32-18.34-.06-4.49-2.11-8.84-5.27-11.98-2.42-2.41-5.51-4.04-8.31-5.93-1.09-.74-2.15-1.51-3.21-2.29-1.86-1.36,1.72,1.43-.05-.05-.5-.42-1.02-.83-1.52-1.25-2-1.69-3.93-3.48-5.76-5.36s-3.58-3.84-5.24-5.88c-.27-.33-.53-.71-.82-1.03,1.83,1.96.35.45-.03-.06-.91-1.23-1.79-2.49-2.64-3.77-2.92-4.4-5.37-9.05-7.53-13.86-.95-2.12.82,2.13,0-.04-.23-.62-.48-1.22-.72-1.84-.39-1.03-.75-2.06-1.1-3.1-.91-2.7-1.69-5.45-2.33-8.22-.55-2.35-.97-4.72-1.35-7.1s.25,2.39.01.05c-.07-.65-.15-1.3-.21-1.96-.14-1.52-.25-3.05-.31-4.58-.1-2.4-.09-4.81.02-7.21.06-1.31.15-2.62.27-3.93.06-.65.14-1.31.21-1.96.14-1.1.11-.87-.1.7.06-.43.13-.87.2-1.3,2.03-12.59,7.31-24.32,10.63-36.57,1.77-6.54,2.94-13.32,3.12-20.1.14-5.23-4.7-10.24-10-10s-9.85,4.39-10,10h0Z"/>
    <g>
      <path class="cls-6" d="M163.56,25.2c-8.23-3.81-17-7.37-26.25-5.87-8.36,1.35-14.25,7.6-17.32,15.15-1.39,3.42-2.06,7.11-2.33,10.78-.35,4.64.21,9.28,2.33,13.47,1.85,3.64,4.84,6.68,7.86,9.36,3.27,2.9,6.63,5.7,9.99,8.49s7.06,5.8,10.64,8.64c1.76,1.4,3.53,2.78,5.3,4.16,1.92,1.49,3.88,3.4,6.14,4.35,3.26,1.37,6.09.31,8.62-1.92,1.74-1.53,3.47-3.08,5.2-4.62,3.53-3.13,7.06-6.27,10.59-9.4,6.28-5.58,12.77-11.23,17.08-18.55,4.61-7.82,6.24-17.31,2.56-25.81-3.05-7.02-9.87-12.11-17.09-14.23-8.24-2.42-17.31-.86-24.75,3.21-1.93,1.06-3.69,2.35-5.42,3.71-2.06,1.63-1.83,5.39,0,7.07,2.19,2.01,4.87,1.74,7.07,0-.68.54-.03.03.28-.2.33-.24.67-.47,1.01-.69.74-.49,1.5-.94,2.28-1.36.72-.39,1.47-.73,2.21-1.08.67-.31-.76.27-.06.03.19-.07.38-.15.58-.22.45-.17.9-.32,1.36-.47.78-.25,1.58-.46,2.38-.65.4-.09.8-.17,1.21-.25.2-.04.4-.07.61-.1.64-.11.2-.15-.11.01.58-.3,1.81-.16,2.46-.17.89-.02,1.78,0,2.67.07.19.02,1.39.16.77.07s.48.09.65.12c.84.16,1.68.37,2.5.63.35.11.7.23,1.04.35.17.06,1.23.49.6.22s.41.2.57.28c.38.19.76.38,1.13.59.64.35,1.26.74,1.86,1.15.14.09.74.66.88.63-.04,0-.71-.59-.3-.22.18.16.37.31.55.47.54.47,1.05.97,1.54,1.49.24.26.48.53.71.8.07.09.24.37.34.41-.38-.5-.46-.6-.25-.31.07.09.14.19.21.29.4.58.78,1.18,1.11,1.8.17.31.33.62.48.94.07.15.12.35.22.48-.18-.24-.31-.83-.11-.21.25.77.5,1.54.67,2.33.08.38.23.83.22,1.22,0-.04-.07-.9-.06-.31,0,.27.05.55.06.82.04.82.04,1.65-.02,2.47-.01.19-.12,1.39-.05.78s-.01.06-.03.16c-.05.27-.1.55-.15.82-.18.89-.41,1.77-.68,2.64-.13.4-.26.8-.4,1.2-.11.31-.6,1.45-.2.57-.73,1.62-1.56,3.17-2.52,4.66-.47.72-.99,1.41-1.47,2.12-.32.47.08-.09.13-.16-.13.17-.27.34-.4.51-.31.39-.64.78-.96,1.16-2.4,2.82-5.08,5.38-7.82,7.87-6.05,5.49-12.22,10.87-18.33,16.3-.37.33-.74.66-1.11.99-.19.16-.37.33-.56.49l-.19.16c-.35.3-.37.32-.06.06.52-.14,1.1-.52,1.69-.55.31-.02.58.13.86.16.48.05.15.07-.08-.11-.2-.16-.42-.29-.62-.45-.39-.29-.76-.59-1.15-.88-.17-.13-1.1-.85-.51-.39-.83-.64-1.65-1.28-2.47-1.92-3.22-2.52-6.42-5.07-9.59-7.65s-6.19-5.09-9.24-7.68c-2.84-2.41-5.78-4.77-8.35-7.48-.57-.59-1.09-1.22-1.62-1.84-.37-.43.13.16.16.21-.11-.17-.24-.33-.35-.49-.27-.38-.52-.78-.76-1.18-.2-.34-.4-.69-.58-1.05-.2-.4-.39-1.08-.14-.27-.3-1-.56-1.96-.8-2.98.2.85-.01-.07-.04-.45-.04-.45-.06-.9-.07-1.34-.02-.96,0-1.91.06-2.87.04-.7.12-1.39.19-2.09.06-.57-.06.45-.06.46.06-.15.06-.36.08-.52.07-.41.14-.82.22-1.22.29-1.45.69-2.88,1.19-4.27.08-.22.17-.44.25-.66.18-.52-.15.36-.17.38.19-.26.3-.67.44-.96.33-.68.69-1.35,1.09-1.99.18-.3.37-.59.57-.87.11-.16.79-1,.32-.47s.26-.29.38-.42c.27-.3.54-.59.83-.87.25-.24.5-.48.76-.7.13-.11.27-.22.4-.33.41-.36-.3.25-.33.25.2,0,.68-.47.86-.59.35-.22.7-.43,1.07-.62.22-.12,1.34-.62.4-.24.39-.16.79-.3,1.2-.43s.81-.24,1.22-.34c.2-.05.41-.09.61-.13.11-.02,1.01-.21.37-.09-.59.11.59-.05.79-.07.42-.03.84-.04,1.26-.05.92,0,1.84.05,2.75.14.99.09-.61-.12.38.05.43.08.86.15,1.28.24.93.19,1.86.43,2.78.69,1.86.53,3.69,1.19,5.49,1.91.21.08.41.17.62.25.06.02.74.31.23.09s.17.07.22.1c.2.09.41.18.61.27.87.38,1.73.78,2.59,1.18,2.37,1.1,5.5.75,6.84-1.79,1.17-2.21.74-5.67-1.79-6.84h0Z"/>
      <path class="cls-6" d="M162.18,37.42c2.62,0,5.12-2.3,5-5s-2.2-5-5-5c-2.62,0-5.12,2.3-5,5s2.2,5,5,5h0Z"/>
      <path class="cls-6" d="M165.07,34.53c2.62,0,5.12-2.3,5-5s-2.2-5-5-5c-2.62,0-5.12,2.3-5,5s2.2,5,5,5h0Z"/>
      <path class="cls-6" d="M170.11,30.93c2.62,0,5.12-2.3,5-5s-2.2-5-5-5c-2.62,0-5.12,2.3-5,5s2.2,5,5,5h0Z"/>
      <path class="cls-6" d="M157.86,34.53c2.62,0,5.12-2.3,5-5s-2.2-5-5-5c-2.62,0-5.12,2.3-5,5s2.2,5,5,5h0Z"/>
    </g>
    <g>
      <path class="cls-6" d="M351.19,396.48c-8.23-3.81-17-7.37-26.25-5.87-8.36,1.35-14.25,7.6-17.32,15.15-1.39,3.42-2.06,7.11-2.33,10.78-.35,4.64.21,9.28,2.33,13.47,1.85,3.64,4.84,6.68,7.86,9.36,3.27,2.9,6.63,5.7,9.99,8.49s7.06,5.8,10.64,8.64c1.76,1.4,3.53,2.78,5.3,4.16,1.92,1.49,3.88,3.4,6.14,4.35,3.26,1.37,6.09.31,8.62-1.92,1.74-1.53,3.47-3.08,5.2-4.62,3.53-3.13,7.06-6.27,10.59-9.4,6.28-5.58,12.77-11.23,17.08-18.55,4.61-7.82,6.24-17.31,2.56-25.81-3.05-7.02-9.87-12.11-17.09-14.23-8.24-2.42-17.31-.86-24.75,3.21-1.93,1.06-3.69,2.35-5.42,3.71-2.06,1.63-1.83,5.39,0,7.07,2.19,2.01,4.87,1.74,7.07,0-.68.54-.03.03.28-.2.33-.24.67-.47,1.01-.69.74-.49,1.5-.94,2.28-1.36.72-.39,1.47-.73,2.21-1.08.67-.31-.76.27-.06.03.19-.07.38-.15.58-.22.45-.17.9-.32,1.36-.47.78-.25,1.58-.46,2.38-.65.4-.09.8-.17,1.21-.25.2-.04.4-.07.61-.1.64-.11.2-.15-.11.01.58-.3,1.81-.16,2.46-.17.89-.02,1.78,0,2.67.07.19.02,1.39.16.77.07s.48.09.65.12c.84.16,1.68.37,2.5.63.35.11.7.23,1.04.35.17.06,1.23.49.6.22s.41.2.57.28c.38.19.76.38,1.13.59.64.35,1.26.74,1.86,1.15.14.09.74.66.88.63-.04,0-.71-.59-.3-.22.18.16.37.31.55.47.54.47,1.05.97,1.54,1.49.24.26.48.53.71.8.07.09.24.37.34.41-.38-.5-.46-.6-.25-.31.07.09.14.19.21.29.4.58.78,1.18,1.11,1.8.17.31.33.62.48.94.07.15.12.35.22.48-.18-.24-.31-.83-.11-.21.25.77.5,1.54.67,2.33.08.38.23.83.22,1.22,0-.04-.07-.9-.06-.31,0,.27.05.55.06.82.04.82.04,1.65-.02,2.47-.01.19-.12,1.39-.05.78s-.01.06-.03.16c-.05.27-.1.55-.15.82-.18.89-.41,1.77-.68,2.64-.13.4-.26.8-.4,1.2-.11.31-.6,1.45-.2.57-.73,1.62-1.56,3.17-2.52,4.66-.47.72-.99,1.41-1.47,2.12-.32.47.08-.09.13-.16-.13.17-.27.34-.4.51-.31.39-.64.78-.96,1.16-2.4,2.82-5.08,5.38-7.82,7.87-6.05,5.49-12.22,10.87-18.33,16.3-.37.33-.74.66-1.11.99-.19.16-.37.33-.56.49l-.19.16c-.35.3-.37.32-.06.06.52-.14,1.1-.52,1.69-.55.31-.02.58.13.86.16.48.05.15.07-.08-.11-.2-.16-.42-.29-.62-.45-.39-.29-.76-.59-1.15-.88-.17-.13-1.1-.85-.51-.39-.83-.64-1.65-1.28-2.47-1.92-3.22-2.52-6.42-5.07-9.59-7.65-3.11-2.53-6.19-5.09-9.24-7.68-2.84-2.41-5.78-4.77-8.35-7.48-.57-.59-1.09-1.22-1.62-1.84-.37-.43.13.16.16.21-.11-.17-.24-.33-.35-.49-.27-.38-.52-.78-.76-1.18-.2-.34-.4-.69-.58-1.05-.2-.4-.39-1.08-.14-.27-.3-1-.56-1.96-.8-2.98.2.85-.01-.07-.04-.45-.04-.45-.06-.9-.07-1.34-.02-.96,0-1.91.06-2.87.04-.7.12-1.39.19-2.09.06-.57-.06.45-.06.46.06-.15.06-.36.08-.52.07-.41.14-.82.22-1.22.29-1.45.69-2.88,1.19-4.27.08-.22.17-.44.25-.66.18-.52-.15.36-.17.38.19-.26.3-.67.44-.96.33-.68.69-1.35,1.09-1.99.18-.3.37-.59.57-.87.11-.16.79-1,.32-.47s.26-.29.38-.42c.27-.3.54-.59.83-.87.25-.24.5-.48.76-.7.13-.11.27-.22.4-.33.41-.36-.3.25-.33.25.2,0,.68-.47.86-.59.35-.22.7-.43,1.07-.62.22-.12,1.34-.62.4-.24.39-.16.79-.3,1.2-.43s.81-.24,1.22-.34c.2-.05.41-.09.61-.13.11-.02,1.01-.21.37-.09-.59.11.59-.05.79-.07.42-.03.84-.04,1.26-.05.92,0,1.84.05,2.75.14.99.09-.61-.12.38.05.43.08.86.15,1.28.24.93.19,1.86.43,2.78.69,1.86.53,3.69,1.19,5.49,1.91.21.08.41.17.62.25.06.02.74.31.23.09s.17.07.22.1c.2.09.41.18.61.27.87.38,1.73.78,2.59,1.18,2.37,1.1,5.5.75,6.84-1.79,1.17-2.21.74-5.67-1.79-6.84h0Z"/>
      <path class="cls-6" d="M349.81,408.69c2.62,0,5.12-2.3,5-5s-2.2-5-5-5c-2.62,0-5.12,2.3-5,5s2.2,5,5,5h0Z"/>
      <path class="cls-6" d="M352.7,405.8c2.62,0,5.12-2.3,5-5s-2.2-5-5-5c-2.62,0-5.12,2.3-5,5s2.2,5,5,5h0Z"/>
      <path class="cls-6" d="M357.74,402.2c2.62,0,5.12-2.3,5-5s-2.2-5-5-5c-2.62,0-5.12,2.3-5,5s2.2,5,5,5h0Z"/>
      <path class="cls-6" d="M345.49,405.8c2.62,0,5.12-2.3,5-5s-2.2-5-5-5c-2.62,0-5.12,2.3-5,5s2.2,5,5,5h0Z"/>
    </g>
    <circle class="cls-3" cx="31.81" cy="115.71" r="16.38"/>
    <circle class="cls-3" cx="464.88" cy="407.89" r="16.38"/>
    <path class="cls-6" d="M160.88,161.29c-20.52,13.55-38.16,30.86-54.07,49.51-8.01,9.39-15.61,19.12-23.06,28.96s-15.34,20.2-22.55,30.61c-3.72,5.38-7.26,10.89-10.32,16.67s-5.55,11.89-7.72,18.1-4.34,13.07-7.02,19.42-5.57,12.18-8.14,18.37c-5.2,12.54-7.38,25.7-7.73,39.23s.51,26.39,1.28,39.53c1.45,24.62,4.2,49.78,14.59,72.44,1.29,2.82,2.71,5.58,4.23,8.29,1.18,2.1,4.43.21,3.24-1.89-12.12-21.51-15.97-46.3-17.76-70.59-.94-12.71-1.63-25.49-1.85-38.24s.47-26.56,4.46-39.22c2.01-6.36,4.81-12.41,7.57-18.47s5.33-12.13,7.51-18.41,4.19-12.78,6.86-18.95,5.69-11.54,9.12-16.98c6.7-10.6,14.41-20.57,21.91-30.61s14.71-19.51,22.47-28.96c15.28-18.61,32-36.32,51.54-50.51,2.41-1.75,4.86-3.44,7.34-5.08,2.01-1.32.13-4.57-1.89-3.24h0Z"/>
    <path class="cls-6" d="M113.83,267.18c-2.5,8.02-6.97,15.19-11.6,22.14s-8.93,13.31-12.81,20.35c-7.48,13.57-13.28,28.1-17.3,43.06-4.03,14.99-6.31,30.48-6.84,45.99-.53,15.52.75,31.1,3.77,46.33s7.88,30.05,14.49,44.09c.82,1.74,1.67,3.47,2.54,5.18,1.46,2.87,5.78.34,4.32-2.52-6.91-13.57-12.03-27.99-15.41-42.83-3.36-14.78-4.94-29.93-4.82-45.08s1.99-30.41,5.59-45.21c3.59-14.78,8.89-29.14,15.92-42.63,3.61-6.94,7.72-13.55,12.08-20.04,4.63-6.88,9.36-13.78,12.63-21.43.85-1.99,1.62-4,2.26-6.06.96-3.08-3.86-4.4-4.82-1.33h0Z"/>
    <path class="cls-6" d="M335.9,14.35c-9.18,22.54-24.24,42.09-40.82,59.67-8.47,8.98-17.38,17.52-26.39,25.95-10.21,9.54-20.48,19-30.73,28.5-12.08,11.19-24.16,22.39-36.25,33.58-2.37,2.19,1.18,5.72,3.54,3.54,21.41-19.83,42.85-39.63,64.22-59.51,18.14-16.88,36.08-34.2,50.78-54.24,8.23-11.22,15.23-23.27,20.48-36.16.51-1.25-.55-2.75-1.75-3.08-1.43-.39-2.56.49-3.08,1.75h0Z"/>
    <path class="cls-6" d="M398,20.99c-22.21,30.46-46.55,59.34-72.78,86.4-13.14,13.56-26.76,26.65-40.82,39.25-14.27,12.79-29.31,24.72-43.19,37.94-27.37,26.07-47.06,58.51-65.75,91.04-18.69,32.52-36.16,66.68-43.79,103.69-6.93,33.62-5.47,70,9.7,101.26,1.86,3.84,3.94,7.56,6.2,11.17,1.7,2.72,6.03.22,4.32-2.52-18.37-29.39-22.35-65.58-17.07-99.35,5.76-36.82,22.05-70.97,40.11-103.2,18.09-32.26,37.04-65.17,63-91.84,13.35-13.71,28.35-25.64,42.72-38.22,14-12.25,27.57-24.98,40.69-38.16,26.19-26.32,50.55-54.45,72.92-84.09,2.72-3.6,5.4-7.22,8.06-10.87,1.9-2.6-2.44-5.1-4.32-2.52h0Z"/>
    <path class="cls-6" d="M216.44,486.26c-23.55-30.42-21.12-71.68-12.96-107.08,4.26-18.47,9.42-36.91,15.89-54.73,6.22-17.14,14.14-33.81,25.08-48.47,10.84-14.52,24.56-26.58,37.86-38.76,6.66-6.1,13.27-12.26,19.48-18.81,6.6-6.97,12.49-14.51,18.31-22.13,11.59-15.16,24.37-29,38.42-41.92,13.75-12.64,28.2-24.5,42.26-36.78,26.2-22.88,51.96-48.26,66.78-80.25,1.81-3.91,3.45-7.9,4.92-11.95,1.1-3.03-3.73-4.34-4.82-1.33-12.2,33.7-37.41,60.54-63.66,84.03-27.99,25.06-58.41,47.82-81.88,77.48-6.34,8.02-12.28,16.35-19.04,24.03-5.96,6.78-12.43,13.08-19.04,19.23-13.38,12.46-27.41,24.36-39.09,38.5-23.85,28.85-34.98,65.74-44.08,101.42-9.18,36.01-14.2,76.48,4.84,110.35,2.12,3.76,4.54,7.31,7.18,10.72,1.97,2.54,5.48-1.02,3.54-3.54h0Z"/>
    <path class="cls-6" d="M463.62,25c-.34,13.1-5.31,25.35-9.13,37.71-3.31,10.69-5.32,21.56-4.85,32.79.85,20.64,8.77,40.89,22.17,56.62,3.31,3.89,6.97,7.47,10.95,10.68,1.94,1.56,3.94,3.05,6.01,4.44s5.11,2.78,5.93,5.43c1.45,4.72-4.7,8.87-8.2,10.52-4.19,1.97-8.84,2.73-12.98,4.9s-7.48,5.33-8.3,9.9c-1,5.57,2.18,10.25,5.23,14.59,2.09,2.98,5.68,8.56,3.02,12.28-1.26,1.76-3.7,1.48-5.59,1.48-2.5,0-4.99.18-7.04,1.77-7.27,5.65,1.85,13.92,4.08,19.56,1.44,3.66-.14,5.97-3.71,7.09-4.11,1.29-8.58,1.7-12.04,4.49-8.22,6.63-3.08,18.58-2.41,27.2.83,10.64-7.01,19.06-16.87,21.96-12.92,3.8-26.96-.7-39.69-3.27-12.67-2.56-25.49-4.81-38.43-5.28-12.63-.46-25.51.89-37.38,5.41-11.2,4.26-21.07,11.05-30.38,18.48-4.84,3.87-9.53,7.92-14.25,11.92s-9.44,7.66-14.05,11.61-8.8,8.49-11.6,14.01c-3.01,5.92-4.83,12.4-6.88,18.69-4.38,13.52-8.77,27.04-13.15,40.56s-9.12,26.58-12.79,40.09c-1.72,6.33-2.92,12.81-2.99,19.39-.04,3.22,4.96,3.22,5,0,.16-14.08,5.72-27.67,10.01-40.89,4.38-13.52,8.77-27.04,13.15-40.56,2.15-6.62,4.29-13.23,6.44-19.85s3.9-12.81,7.54-18.41c3.29-5.07,8.07-8.96,12.73-12.71s9.55-7.88,14.27-11.89c9.19-7.81,18.52-15.6,29.17-21.37,11.18-6.06,23.54-9,36.21-9.47,13-.48,25.97,1.29,38.72,3.67,12.88,2.4,26.08,6.61,39.28,6.24,11.03-.31,22.28-4.95,28.01-14.86,2.5-4.33,3.36-9.15,2.88-14.09s-2.04-10.2-2.11-15.38c-.06-4.5,1.86-7.64,6.21-9.05,3.9-1.26,8.48-1.54,11.71-4.32,7.22-6.22-.18-14.66-3.4-20.66-.48-.89-1.23-2.2-.97-3.26.47-1.97,3.19-1.79,4.74-1.79,4.83,0,9.5-1.15,10.95-6.36,1.24-4.44-.36-9.43-2.83-13.14-2.63-3.95-7.54-8.93-5.55-14.12,1.58-4.14,6.7-6.04,10.53-7.36,4.65-1.6,9.13-2.87,13.03-6.04,3.64-2.96,6.77-7.52,5.66-12.43-1.19-5.27-6.51-7.58-10.5-10.45-16.92-12.16-28.34-31.32-32.68-51.54-2.16-10.08-2.58-20.65-.9-30.84,2.04-12.34,7.08-23.89,10.26-35.94,1.56-5.92,2.63-11.97,2.79-18.11.08-3.22-4.92-3.22-5,0h0Z"/>
  </g>
  <g>
    <g>
      <path class="cls-4" d="M61.01,555.41v22.27h-19.41c-2.64,0-4.5.39-5.6,1.17-1.1.78-1.65,2.1-1.65,3.96,0,2.1.56,3.48,1.68,4.14,1.12.66,3.42.99,6.88.99h20v28.56h-23.36c-10.99,0-19.39-2.62-25.2-7.87-5.81-5.25-8.72-12.83-8.72-22.74v-39.18c0-9.57,2.75-16.99,8.24-22.27s13.22-7.91,23.18-7.91h25.85v28.71h-18.97c-5.13,0-7.69,1.66-7.69,4.98,0,1.95.61,3.31,1.83,4.07,1.22.76,3.39,1.13,6.52,1.13h16.41Z"/>
      <path class="cls-4" d="M98.21,583.68c4.78,0,8.9,1.73,12.34,5.2,3.44,3.47,5.16,7.59,5.16,12.38s-1.71,8.85-5.13,12.2c-3.42,3.34-7.54,5.02-12.38,5.02s-9.17-1.62-12.41-4.87c-3.25-3.25-4.87-7.39-4.87-12.42s1.68-9.02,5.05-12.42c3.37-3.39,7.45-5.09,12.23-5.09Z"/>
      <path class="cls-4" d="M166.47,516.52v99.98h-29.74v-99.98h29.74Z"/>
      <path class="cls-4" d="M204.71,583.68c4.78,0,8.9,1.73,12.34,5.2,3.44,3.47,5.16,7.59,5.16,12.38s-1.71,8.85-5.13,12.2c-3.42,3.34-7.54,5.02-12.38,5.02s-9.17-1.62-12.41-4.87c-3.25-3.25-4.87-7.39-4.87-12.42s1.68-9.02,5.05-12.42c3.37-3.39,7.45-5.09,12.23-5.09Z"/>
      <path class="cls-4" d="M241.18,516.52h29.74v59.4c0,4.64.74,7.73,2.23,9.27,1.49,1.54,4.43,2.31,8.83,2.31h1.54v29h-7.91c-10.84,0-19.29-3.16-25.34-9.48-6.06-6.32-9.08-15.1-9.08-26.33v-64.16Z"/>
      <path class="cls-4" d="M311.79,583.68c4.79,0,8.9,1.73,12.34,5.2,3.44,3.47,5.16,7.59,5.16,12.38s-1.71,8.85-5.13,12.2c-3.42,3.34-7.54,5.02-12.38,5.02s-9.17-1.62-12.41-4.87c-3.25-3.25-4.87-7.39-4.87-12.42s1.68-9.02,5.05-12.42c3.37-3.39,7.45-5.09,12.23-5.09Z"/>
      <path class="cls-4" d="M380.05,516.52v99.98h-29.74v-99.98h29.74Z"/>
      <path class="cls-4" d="M418.28,583.68c4.79,0,8.9,1.73,12.34,5.2,3.44,3.47,5.16,7.59,5.16,12.38s-1.71,8.85-5.13,12.2c-3.42,3.34-7.54,5.02-12.38,5.02s-9.17-1.62-12.41-4.87c-3.25-3.25-4.87-7.39-4.87-12.42s1.68-9.02,5.05-12.42c3.37-3.39,7.45-5.09,12.23-5.09Z"/>
      <path class="cls-4" d="M503.76,516.08v28.49c-2.15-.73-3.81-1.1-4.98-1.1-2.25,0-4.17.83-5.79,2.49-1.61,1.66-2.42,3.66-2.42,6.01,0,2,.88,4.54,2.64,7.62l2.27,3.96c4.1,7.13,6.15,14.01,6.15,20.65,0,9.72-3.46,17.94-10.36,24.68s-15.34,10.11-25.3,10.11c-4.79,0-9.52-1.1-14.21-3.3v-28.93c2.83,1.81,5.35,2.71,7.54,2.71,2.59,0,4.75-.74,6.48-2.23s2.6-3.36,2.6-5.6c0-1.46-1.39-4.66-4.17-9.59-4.44-7.81-6.67-15.62-6.67-23.44,0-9.42,3.36-17.54,10.07-24.35,6.71-6.81,14.73-10.22,24.06-10.22,4.1,0,8.13.68,12.08,2.05Z"/>
    </g>
    <g>
      <path class="cls-2" d="M65.01,555.41v22.27h-19.41c-2.64,0-4.5.39-5.6,1.17-1.1.78-1.65,2.1-1.65,3.96,0,2.1.56,3.48,1.68,4.14,1.12.66,3.42.99,6.88.99h20v28.56h-23.36c-10.99,0-19.39-2.62-25.2-7.87-5.81-5.25-8.72-12.83-8.72-22.74v-39.18c0-9.57,2.75-16.99,8.24-22.27s13.22-7.91,23.18-7.91h25.85v28.71h-18.97c-5.13,0-7.69,1.66-7.69,4.98,0,1.95.61,3.31,1.83,4.07,1.22.76,3.39,1.13,6.52,1.13h16.41Z"/>
      <path class="cls-2" d="M102.22,583.68c4.78,0,8.9,1.73,12.34,5.2,3.44,3.47,5.16,7.59,5.16,12.38s-1.71,8.85-5.13,12.2c-3.42,3.34-7.54,5.02-12.38,5.02s-9.17-1.62-12.41-4.87c-3.25-3.25-4.87-7.39-4.87-12.42s1.68-9.02,5.05-12.42c3.37-3.39,7.45-5.09,12.23-5.09Z"/>
      <path class="cls-2" d="M170.48,516.52v99.98h-29.74v-99.98h29.74Z"/>
      <path class="cls-2" d="M208.72,583.68c4.78,0,8.9,1.73,12.34,5.2,3.44,3.47,5.16,7.59,5.16,12.38s-1.71,8.85-5.13,12.2c-3.42,3.34-7.54,5.02-12.38,5.02s-9.17-1.62-12.41-4.87c-3.25-3.25-4.87-7.39-4.87-12.42s1.68-9.02,5.05-12.42c3.37-3.39,7.45-5.09,12.23-5.09Z"/>
      <path class="cls-2" d="M245.19,516.52h29.74v59.4c0,4.64.74,7.73,2.23,9.27,1.49,1.54,4.43,2.31,8.83,2.31h1.54v29h-7.91c-10.84,0-19.29-3.16-25.34-9.48-6.06-6.32-9.08-15.1-9.08-26.33v-64.16Z"/>
      <path class="cls-2" d="M315.8,583.68c4.79,0,8.9,1.73,12.34,5.2,3.44,3.47,5.16,7.59,5.16,12.38s-1.71,8.85-5.13,12.2c-3.42,3.34-7.54,5.02-12.38,5.02s-9.17-1.62-12.41-4.87c-3.25-3.25-4.87-7.39-4.87-12.42s1.68-9.02,5.05-12.42c3.37-3.39,7.45-5.09,12.23-5.09Z"/>
      <path class="cls-2" d="M384.06,516.52v99.98h-29.74v-99.98h29.74Z"/>
      <path class="cls-2" d="M422.29,583.68c4.79,0,8.9,1.73,12.34,5.2,3.44,3.47,5.16,7.59,5.16,12.38s-1.71,8.85-5.13,12.2c-3.42,3.34-7.54,5.02-12.38,5.02s-9.17-1.62-12.41-4.87c-3.25-3.25-4.87-7.39-4.87-12.42s1.68-9.02,5.05-12.42c3.37-3.39,7.45-5.09,12.23-5.09Z"/>
      <path class="cls-2" d="M507.76,516.08v28.49c-2.15-.73-3.81-1.1-4.98-1.1-2.25,0-4.17.83-5.79,2.49-1.61,1.66-2.42,3.66-2.42,6.01,0,2,.88,4.54,2.64,7.62l2.27,3.96c4.1,7.13,6.15,14.01,6.15,20.65,0,9.72-3.46,17.94-10.36,24.68s-15.34,10.11-25.3,10.11c-4.79,0-9.52-1.1-14.21-3.3v-28.93c2.83,1.81,5.35,2.71,7.54,2.71,2.59,0,4.75-.74,6.48-2.23s2.6-3.36,2.6-5.6c0-1.46-1.39-4.66-4.17-9.59-4.44-7.81-6.67-15.62-6.67-23.44,0-9.42,3.36-17.54,10.07-24.35,6.71-6.81,14.73-10.22,24.06-10.22,4.1,0,8.13.68,12.08,2.05Z"/>
    </g>
  </g>
</svg>